<?xml version="1.0" encoding="utf-8"?>
<!-- Generator: Adobe Illustrator 21.0.0, SVG Export Plug-In . SVG Version: 6.00 Build 0)  -->
<svg version="1.1" id="Layer_1" xmlns="http://www.w3.org/2000/svg" xmlns:xlink="http://www.w3.org/1999/xlink" x="0px" y="0px"
	 viewBox="0 0 84.6 74.9" style="enable-background:new 0 0 84.6 74.9;" xml:space="preserve">
<style type="text/css">
	.st0{fill:none;}
	.st1{fill:#FFFFFF;}
</style>
<g>
	<path class="st0" d="M4.8,24v26.9h17.9l0.7,0.7c5.5,5.5,10.9,11,16.4,16.5V6.8L22.7,24H4.8z"/>
	<path class="st1" d="M39.9,1.7c-1.2,0-2.3,0.5-3.2,1.3l-16,16.1H4.6c-2.5,0-4.6,2.1-4.6,4.6v27.3c0,2.5,2.1,4.6,4.6,4.6h16.1
		c5.3,5.4,10.7,10.7,16,16.1c0.9,0.9,2,1.3,3.2,1.3h0c1.2,0,2.3-0.4,3.2-1.2c1-0.9,1.5-2.1,1.5-3.3V6.3C44.5,3.8,42.4,1.7,39.9,1.7z
		 M39.7,68.1c-5.5-5.5-10.9-11-16.4-16.5l-0.7-0.7H4.8V24h17.9L39.7,6.8V68.1z"/>
	<path class="st1" d="M53.3,63.4C64.8,59.1,72,49.2,72,37.4c0-11.8-7.2-21.7-18.7-26c-0.3-0.1-0.6-0.2-0.9-0.2c-1.1,0-1.8,1-2,2
		c-0.2,1.1,0.1,2.6,1.8,3.2C61.3,19.9,67,27.9,67,37.4c0,9.5-5.7,17.5-14.8,20.9c-1.6,0.6-2,2.1-1.8,3.2c0.2,1,0.9,2,2,2
		C52.7,63.6,53,63.5,53.3,63.4z"/>
	<path class="st1" d="M57.8,74.7c16.5-6.1,26.8-20.4,26.7-37.3c0-16.9-10.3-31.1-26.8-37.2C57.5,0.1,57.1,0,56.9,0c-1.1,0-1.8,1-2,2
		c-0.2,1.1,0.1,2.6,1.8,3.2c14.1,5.2,22.9,17.5,22.9,32.1c0,14.6-8.8,26.9-22.9,32.2c-1.6,0.6-2,2.1-1.8,3.2c0.2,1,0.9,2,2,2
		C57.2,74.9,57.5,74.8,57.8,74.7z"/>
</g>
</svg>
