<?xml version="1.0" encoding="utf-8"?>
<!-- Generator: Adobe Illustrator 21.0.0, SVG Export Plug-In . SVG Version: 6.00 Build 0)  -->
<svg version="1.1" xmlns="http://www.w3.org/2000/svg" xmlns:xlink="http://www.w3.org/1999/xlink" x="0px" y="0px"
	 viewBox="0 0 80.1 74.4" style="enable-background:new 0 0 80.1 74.4;" xml:space="preserve">
<style type="text/css">
	.st0{display:none;}
	.st1{display:inline;}
	.st2{fill:none;}
	.st3{fill:#FC0000;}
	.st4{fill:none;stroke:#FFFFFF;stroke-width:3.5;stroke-linecap:square;stroke-miterlimit:110;}
	.st5{fill:none;stroke:#FFFFFF;stroke-width:3.5;stroke-linecap:square;stroke-linejoin:bevel;stroke-miterlimit:10;}
</style>
<g id="ref" class="st0">
	<g class="st1">
		<path class="st2" d="M3.5,23.7v26.9h17.9l0.7,0.7c5.5,5.5,10.9,11,16.4,16.5V6.5L21.4,23.7H3.5z"/>
		<path class="st3" d="M38.6,1.4c-1.2,0-2.3,0.5-3.2,1.3l-16,16.1H3.3c-2.5,0-4.6,2.1-4.6,4.6v27.3c0,2.5,2.1,4.6,4.6,4.6h16.1
			c5.3,5.4,10.7,10.7,16,16.1c0.9,0.9,2,1.3,3.2,1.3l0,0c1.2,0,2.3-0.4,3.2-1.2c1-0.9,1.5-2.1,1.5-3.3V6C43.2,3.5,41.1,1.4,38.6,1.4
			z M38.4,67.8c-5.5-5.5-10.9-11-16.4-16.5l-0.7-0.7H3.5V23.7h17.9l17-17.2V67.8z"/>
		<path class="st3" d="M52,63.1c11.5-4.3,18.7-14.2,18.7-26s-7.2-21.7-18.7-26c-0.3-0.1-0.6-0.2-0.9-0.2c-1.1,0-1.8,1-2,2
			c-0.2,1.1,0.1,2.6,1.8,3.2c9.1,3.5,14.8,11.5,14.8,21S60,54.6,50.9,58c-1.6,0.6-2,2.1-1.8,3.2c0.2,1,0.9,2,2,2
			C51.4,63.3,51.7,63.2,52,63.1z"/>
		<path class="st3" d="M56.5,74.4C73,68.3,83.3,54,83.2,37.1C83.2,20.2,72.9,6,56.4-0.1c-0.2-0.1-0.6-0.2-0.8-0.2c-1.1,0-1.8,1-2,2
			c-0.2,1.1,0.1,2.6,1.8,3.2C69.5,10.1,78.3,22.4,78.3,37s-8.8,26.9-22.9,32.2c-1.6,0.6-2,2.1-1.8,3.2c0.2,1,0.9,2,2,2
			C55.9,74.6,56.2,74.5,56.5,74.4z"/>
	</g>
</g>
<g id="Layer_2">
	<g>
		<path class="st4" d="M52.7,71.9c14.7-4.6,25.4-18.4,25.4-34.6C78.1,20.8,67.2,7,52.3,2.5"/>
		<path class="st4" d="M48.1,13.4c10.6,2.8,18.3,12.4,18.3,23.8c0,11.3-7.6,20.8-18,23.7"/>
	</g>
	<polygon class="st5" points="38.8,4.2 20.1,22.4 2,22.4 2,52 20.1,52 38.8,70.1 	"/>
</g>
</svg>
